<svg width="683" height="513" viewBox="0 0 683 513" fill="none" xmlns="http://www.w3.org/2000/svg">
<path fill-rule="evenodd" clip-rule="evenodd" d="M181.307 191.088C187.707 191.388 196.107 192.488 202.807 194.088C208.907 195.488 221.207 199.088 230.307 201.988C239.407 204.988 250.607 208.388 255.307 209.588C260.807 210.988 266.807 211.788 272.307 211.788C278.707 211.788 282.907 211.088 289.307 209.088C294.007 207.688 297.907 206.588 298.107 206.788C298.307 206.988 298.207 207.988 297.907 209.088C297.607 210.288 295.507 211.988 292.607 213.188C290.007 214.388 285.407 215.888 282.607 216.488C279.707 217.088 274.807 217.588 271.807 217.588C268.807 217.588 261.907 216.688 256.607 215.588C251.207 214.488 239.207 211.188 229.807 208.188C220.407 205.288 209.407 201.888 205.307 200.688C201.207 199.588 193.307 197.988 187.807 197.088C182.307 196.288 175.007 195.588 171.507 195.588C166.007 195.588 165.307 195.388 165.307 193.588C165.307 192.188 166.107 191.488 168.107 191.188C169.607 190.988 175.507 190.888 181.307 191.088Z" fill="#EBF2F7"/>
<path d="M173.707 191.088C174.107 190.488 161.707 191.588 161.307 191.688C161.007 191.688 159.607 192.088 158.307 192.588C156.907 193.088 155.907 193.988 156.007 194.588C156.107 195.088 157.907 195.588 160.007 195.588C162.607 195.588 172.207 195.688 171.207 195.088C170.407 194.588 173.407 191.688 173.707 191.088Z" fill="#EBF2F7"/>
<path d="M44 0.00952686C47 -0.090473 52 0.609528 55 1.50953C58 2.40953 63.4 4.60992 67 6.40992C70.6 8.20992 76.7 11.9092 80.5 14.6091C84.3 17.3091 90.6004 22.4095 94.4004 26.0095C98.2004 29.5096 104.7 36.71 108.9 41.9099C113.1 47.11 119.5 56.3101 123.1 62.4099C126.8 68.5099 131.1 76.1099 132.7 79.4099C134.4 82.7101 137.3 89.5101 139.3 94.4099C141.2 99.31 144.5 109.31 150.5 129.41L151.2 116.91C151.5 110.01 152.6 100.81 153.5 96.4099C154.4 92.01 156.5 84.3099 158 79.4099C159.6 74.51 163.2 65.9099 166 60.4099C168.8 54.91 173.6 47.01 176.5 42.9099C179.5 38.8099 185.5 31.8099 189.9 27.4099C194.3 23.0099 200.7 17.7091 204.2 15.6091C207.7 13.5092 212.3 11.4093 214.5 10.8093C216.7 10.2093 220.3 10.0093 222.5 10.3093C224.7 10.6093 227.5 11.9092 228.8 13.1091C230.1 14.4091 231.8 17.9099 232.7 20.9099C233.8 24.9098 234.1 28.9101 233.8 35.4099C233.5 40.3099 232.3 48.01 231.2 52.4099C230 56.81 227.3 64.91 225.2 70.4099C223 75.91 219 85.31 216.3 91.4099C213.6 97.51 208.3 107.81 204.5 114.41C200.8 121.01 193.2 133.41 187.7 141.91C182.1 150.41 173.6 163.31 168.7 170.41C163.7 177.51 157.5 185.91 154.9 188.91C152.201 191.909 150.401 194.809 150.8 195.309C150.88 195.409 151.5 195.81 151.5 196.41C151.499 197.01 149.7 199.01 148.5 200.91C147.3 202.81 145 204.41 144.5 205.41C144 205.91 144 205.91 143.3 206.41C142.699 206.411 139.399 209.81 136.1 213.91C132.8 218.01 127.1 226.31 123.4 232.41C119.7 238.51 112.9 249.91 108.2 257.91C103.5 265.91 96.6004 276.51 92.9004 281.41C89.1004 286.31 83.1998 293.809 79.7998 298.109C76.2998 302.309 67.8996 312.609 61.0996 321.109C54.1996 329.509 45.5002 341.11 41.7002 346.91C37.9002 352.71 33.1998 360.51 31.2998 364.41C29.2998 368.31 26.5998 374.51 25.2998 378.41C23.9998 382.31 22.3 388.41 21.5 392.21C20.7 395.91 20 403.71 20 409.71C20 416.11 20.6996 423.01 21.5996 426.91C22.4997 430.51 24.7004 436.51 26.4004 440.41C28.2004 444.31 31.1001 449.71 33 452.41C34.9001 455.21 39.3005 460.509 42.9004 464.309C46.5004 468.009 54.2 475.01 60 479.71C65.8 484.41 73.8004 491.209 77.9004 494.809C82.0004 498.409 86.8002 503.71 88.7002 506.41C90.5001 509.21 92 511.71 92 512.21C91.9997 512.609 90.9999 512.41 89.7002 511.71C88.5002 511.11 84.7999 508.01 81.5 504.91C78.2 501.91 69 494.11 61 487.71C53 481.41 43.6 473.109 40 469.309C36.4001 465.509 31.8998 459.91 29.7998 456.91C27.7998 453.91 24.7996 448.51 23.0996 444.91C21.3997 441.31 19.1004 435.31 17.9004 431.41C16.7004 427.11 15.5998 420.11 15.2998 413.41C14.9998 407.01 15.2004 399.21 15.9004 394.91C16.6004 390.81 17.9996 384.31 19.0996 380.41C20.2996 376.51 23.1 369.41 25.5 364.41C27.9 359.41 33.4004 350.01 37.9004 343.41C42.3004 336.81 49.4002 327.11 53.7002 321.71C58.0001 316.41 66.6996 305.61 73.0996 297.71C79.4996 289.91 88.6002 277.81 93.2002 270.91C97.9002 264.01 106.6 250.609 112.6 241.109C118.6 231.609 125.2 221.209 127.2 218.109C129.2 215.01 130.9 212.11 130.9 211.71C131 211.21 130.2 211.209 129.2 211.609C128.3 211.909 123.2 215.01 118 218.51C112.8 221.91 104.4 227.91 99.5 231.91C94.6 235.91 88 240.81 85 242.91C82 244.91 76.7999 248.01 73.5 249.71C70.2 251.31 64.3 253.61 60.5 254.71C56.7 255.81 51 257.11 48 257.41C45 257.71 39.6 257.51 36 256.91C32.4001 256.21 27 254.41 24 252.91C21.0001 251.41 16.3002 247.91 13.7002 245.21C11.0003 242.61 7.60007 238.21 6 235.41C4.50004 232.71 2.49964 227.91 1.59961 224.91C0.699638 221.91 4.44129e-05 216.31 0 212.41C0 208.51 0.699674 202.91 1.59961 199.91C2.49956 196.91 4.09983 192.61 5.2998 190.41C6.3998 188.21 9.40039 184.21 11.9004 181.51C14.4003 178.81 18.3 175.41 20.5 173.91C22.7 172.41 27 170.11 30 168.91C33 167.71 39.1004 166.41 51.4004 165.41L38.5 159.01C28.1001 153.81 24.3003 151.309 19.4004 146.51C14.8005 141.91 12.9 139.11 11.5 134.91C10.3 131.01 9.89964 127.21 10.0996 121.91C10.3996 115.41 11.0998 113.01 15.0996 104.91C17.5995 99.7101 20.2999 92.9101 21 89.9099C22 85.71 22.1004 80.6096 21.4004 67.9099C20.9004 58.8101 20.5 44.41 20.5 35.9099C20.5 23.9102 20.9003 19.3099 22.2002 15.4099C23.2002 12.61 25.7 8.50974 28 6.20972C30.1999 3.8098 33.4998 1.50963 35.2998 1.00953C36.9998 0.509527 41 0.00952686 44 0.00952686ZM53.5 170.309C45.6 170.009 40.9998 170.31 37.2998 171.41H37.2002C34.4002 172.21 29.3998 174.209 26.2998 175.809C22.6998 177.609 18.5002 180.91 15.2002 184.51C12.1002 187.91 8.9002 192.71 7.7002 195.91C6.00031 200.31 5.6 203.61 5.5 212.41C5.50001 222.609 5.70004 223.91 8.5 229.91C10.2001 233.51 13.6001 238.61 16 241.21C18.8 244.21 23.0001 247.31 27 249.21C32.1999 251.71 35.1 252.41 41.5 252.71C46.6 253.01 52 252.51 56.5 251.51C60.2999 250.61 67.6 247.81 72.5 245.41C78.2 242.61 86.5 237.009 95 230.309C102.4 224.509 113.2 216.41 119 212.41C124.8 208.51 131.7 203.909 134.3 202.309C138.2 200.009 138.9 199.21 137.8 198.21C137.1 197.61 130.9 194.609 124 191.609C117.1 188.609 100.9 182.71 88 178.41C65.6 171.11 64 170.709 53.5 170.309ZM43 4.90992C41.1 4.90992 37.7 5.80934 35.5 6.80933C32.9 8.00933 30.6998 10.0095 29.2998 12.5095C28.0998 14.6096 26.5004 20.01 25.9004 24.4099C24.9005 30.8097 24.9004 35.6102 25.9004 48.4099C26.6004 57.2098 27.4002 68.21 27.7002 72.9099C28.1001 79.0097 27.7996 83.21 26.5996 87.9099C25.6995 91.5101 22.8999 98.7102 20.5 103.91C18.1001 109.11 15.6 115.61 15 118.41C14.2001 121.91 14.2001 124.809 15 128.109C15.5 130.809 16.6004 134.109 17.4004 135.609C18.1004 137.209 20.4996 140.01 22.5996 141.91C24.7996 143.91 30.6 147.91 35.5 150.91C40.4 153.91 49.0001 158.41 54.5 161.01C60 163.61 68.6 166.91 73.5 168.41C78.4001 169.91 90.8001 173.81 101 177.01C111.6 180.51 125 185.61 132.4 189.21L145.3 195.41C149.7 190.01 151.8 186.81 152.7 184.91C154 182.11 154.2 179.51 153.7 171.41C153.3 164.01 151.7 155.71 147.6 139.91C144.6 128.11 141 115.311 139.7 111.41C138.4 107.51 135.6 100.31 133.6 95.4099C131.5 90.51 127.6 82.1099 124.8 76.9099C122 71.7101 117 63.31 113.7 58.4099C110.4 53.51 105.1 46.21 102 42.4099C98.9001 38.61 93.0004 32.3096 88.9004 28.5095C84.8005 24.7096 79.0001 20.01 76 17.9099C73.0001 15.91 67.7002 12.8095 64.2002 11.0095C60.8002 9.30953 55.3998 7.20992 52.2998 6.40992C49.0998 5.60992 44.9 4.90992 43 4.90992ZM218.7 15.0095C217.5 15.0095 214.9 15.6093 213 16.3093C211.1 17.0093 207.3 19.1099 204.5 20.9099C201.8 22.71 196.4 27.4094 192.5 31.3093C188.6 35.2093 183.2 41.8099 180.3 45.9099C177.5 50.0101 172.499 59.0102 169.1 65.9099C165.8 72.8099 161.9 82.51 160.5 87.4099C159.1 92.3099 157.5 99.11 157 102.41C156.4 105.71 156 113.81 156 120.41C156 127.01 156.7 137.31 157.5 143.41C158.3 149.51 159.3 158.809 159.7 164.109C160.4 172.109 160.7 173.609 161.9 172.609C162.601 171.908 165.1 168.709 167.3 165.41C169.522 162.221 176.039 152.497 182.159 143.365L182.8 142.41C189.9 131.71 197.5 118.61 203.4 106.91C208.4 96.7101 214.9 82.61 217.7 75.4099C220.6 68.2102 224.1 58.3101 225.6 53.4099C227.3 47.5101 228.4 41.0097 228.8 34.4099C229.2 26.5104 228.9 23.7098 227.7 20.9099C226.8 19.0099 224.9 16.8091 223.5 16.1091C222.1 15.5092 220 14.9096 218.7 15.0095Z" fill="#EBF2F7"/>
<path d="M415.201 112.475C418.501 109.075 419.6 108.575 421.8 109.075C423.3 109.475 425.1 110.575 425.8 111.475C426.5 112.375 427 114.875 427.001 116.875C427.001 119.874 426.3 121.375 423.701 123.674C420.601 126.674 420.501 126.775 422.501 128.275C423.601 129.075 425.701 130.374 427.201 131.174C428.801 131.974 430.9 134.074 432.001 135.674C433.1 137.374 434 140.375 434.001 142.375C434.001 145.274 432.4 148.875 427.501 157.174C423.901 163.274 420.401 169.875 419.701 172.075C418.601 175.675 418.701 175.975 421.001 177.875C422.9 179.375 424.3 179.674 427.001 179.174C428.901 178.774 432.601 177.375 435.201 176.075C437.901 174.775 445.501 169.974 452.201 165.375C459.001 160.874 471.401 151.774 479.901 145.174C488.301 138.574 498.001 130.974 501.401 128.375C504.701 125.775 510.201 122.274 513.5 120.674C516.8 119.074 521.301 117.475 523.5 117.075C526.3 116.675 528.501 116.875 530.701 118.075C532.501 118.975 534.7 121.074 535.5 122.674C536.701 125.174 537.501 125.574 539.701 125.174C541.301 124.974 543.1 125.275 543.8 125.975C544.5 126.675 545 127.975 545 128.875C545 129.875 543.1 133.675 540.8 137.375C538.5 141.174 535.301 147.774 533.701 152.174C531.601 157.774 530.7 162.175 530.6 166.775C530.5 172.175 530.901 173.875 532.5 175.575C534 177.175 535.701 177.774 538.701 177.674C541.701 177.674 545.101 176.575 549.701 174.075C553.501 172.075 559.901 168.175 564 165.275C568.1 162.475 575.5 156.275 580.5 151.475C586.201 145.875 590.301 142.774 591.701 142.674C593 142.674 594 143.275 594 143.875C594.1 144.575 591 148.475 587.3 152.575C583.6 156.675 576.9 162.774 572.5 166.174C568.1 169.574 561.401 174.175 557.5 176.475C553.601 178.675 548.001 181.274 545 182.174C541.701 183.274 538.1 183.675 536 183.375C534.1 182.975 531.2 181.675 529.6 180.475C528 179.175 526.1 176.675 525.3 174.875C524.6 173.174 524 169.574 524 166.875C524.001 164.275 524.401 160.574 524.901 158.674C525.301 156.774 526.101 154.074 526.5 152.674C527 151.075 523.3 154.375 516.401 161.575C510.401 167.775 502.801 174.874 499.5 177.174C496.201 179.474 491.601 182.075 489.201 182.975C486.901 183.975 483.601 184.674 482 184.674C480.401 184.674 477.801 184.075 476.201 183.275C474.701 182.575 473.201 181.175 472.701 180.275C472.301 179.375 472 176.575 472 173.875C472.101 171.274 472.901 166.674 474 163.674C475.1 160.674 475.901 157.875 476 157.375C476 156.975 473.4 158.675 470.201 161.075C467.101 163.475 460.701 167.875 456.001 170.975C451.3 173.975 443.9 178.175 439.501 180.275C435.101 182.375 429.501 184.275 427.001 184.575C424.4 184.775 421.1 184.375 419.1 183.575C417.3 182.775 415.101 180.974 414.401 179.375C413.601 177.875 413.001 175.475 413.001 173.875C413.001 172.374 414.2 168.674 415.6 165.674C417 162.674 420.1 157.074 422.6 153.174C425.7 148.174 427.001 145.074 427.001 142.375C427 139.075 426.4 138.174 422.001 134.674C418.901 132.175 416.301 130.875 415.201 131.174C414.301 131.474 409.9 136.275 405.501 141.875C401.101 147.375 393.9 155.575 389.501 160.075C385.101 164.575 378.601 170.274 375.001 172.875C371.401 175.374 366.401 178.475 363.701 179.575C361.101 180.775 357.501 181.674 355.701 181.674C354.001 181.774 351.301 180.874 349.701 179.674C348.201 178.574 346.501 175.975 345.901 173.875C345.201 171.775 345 167.574 345.3 164.174C345.6 160.874 346.2 157.074 346.6 155.674C347.1 153.875 343.6 156.775 334.901 165.174C326.801 172.974 320.601 178.175 317 179.975C314.001 181.475 310.601 182.675 309.5 182.775C308.4 182.775 306.4 181.975 305.1 180.975C303.3 179.575 302.7 177.974 302.3 173.674C302 170.674 302.301 166.274 302.901 163.875C303.601 161.175 303.7 159.674 303 159.674C302.501 159.674 296.701 163.575 290.201 168.375C283.801 173.174 275.701 178.574 272.201 180.375C268.801 182.174 264.601 183.674 263 183.674C261.1 183.674 259 182.675 257.1 180.875C255.4 179.274 253.9 176.574 253.5 174.174C253.001 171.874 253.201 167.174 253.901 163.174C254.501 159.274 255.3 155.074 255.6 153.674C255.9 151.775 252.7 154.475 242.8 164.174C234 172.774 227.501 178.274 223.5 180.375C220.201 182.174 215.301 183.874 212.5 184.174C209.301 184.574 206.601 184.275 205 183.475C203.6 182.675 201.9 180.774 201.1 179.174C200.1 176.775 200.001 174.974 200.901 170.174C201.501 166.874 203.701 160.574 205.901 156.174C208.101 151.774 212.701 144.574 216.201 140.174C219.701 135.774 225.901 129.475 230 126.275C234.1 123.075 240 119.275 243 117.975C246 116.575 250.5 115.275 253 114.975C256.1 114.575 258.501 114.975 260.701 116.075C262.501 116.975 264.801 118.675 265.701 119.975C266.701 121.175 268.701 122.775 270.201 123.475C272.1 124.275 273 125.475 273 126.875C273 128.175 271.5 132.574 269.6 136.674C267.7 140.774 265.001 147.774 263.5 152.174C262.101 156.574 260.501 163.174 260 166.875C259.301 171.374 259.301 174.374 260 175.674C260.6 176.774 262.001 177.674 263.201 177.674C264.501 177.574 268.001 176.274 271 174.674C274.001 172.974 279.601 169.275 283.5 166.275C287.4 163.275 294.1 158.175 298.6 154.975C305.5 150.075 307.2 148.174 310.1 142.674C312 139.074 315.601 132.874 318.201 128.875C320.9 124.975 323.5 121.375 324.1 120.875C324.7 120.475 325.6 120.875 326.1 121.674C326.6 122.474 327 123.574 327 124.174C327 124.774 324.3 129.874 321 135.674C317.701 141.474 313.601 149.774 311.901 154.174C310.201 158.574 308.501 164.975 308.201 168.275C307.701 172.575 307.901 174.875 308.701 176.075C309.501 177.075 310.701 177.375 311.701 176.975C312.701 176.675 315.301 175.075 317.5 173.575C319.701 172.075 324.401 168.075 327.901 164.575C331.401 161.075 337.601 154.374 341.501 149.674C345.5 144.974 351.201 137.374 354.201 132.674C357.201 127.975 360.4 123.875 361.3 123.375C362.2 122.975 363.5 122.874 364.001 123.174C364.501 123.474 365.001 124.475 365.001 125.475C365 126.376 362.5 132.375 359.501 138.674C356.601 144.974 353.4 153.074 352.6 156.674C351.7 160.274 351.001 165.174 351.001 167.674C351.001 170.174 351.701 173.175 352.501 174.475C353.301 175.675 355.001 176.674 356.201 176.674C357.501 176.674 361.401 174.975 365.001 172.975C369.1 170.575 375.601 164.974 382.901 157.674C389.101 151.374 397.501 142.074 401.501 137.174C405.6 132.275 409.301 126.975 409.901 125.475C410.501 123.875 411.1 121.275 411.1 119.575C411.2 117.375 412.401 115.275 415.201 112.475ZM258 121.997C256.601 121.697 253.3 122.197 250.5 123.197C247.801 124.197 242.6 126.996 239 129.396C235.4 131.796 229.5 136.796 225.9 140.396C222.3 143.996 217.5 149.596 215.3 152.896C213 156.196 210.3 161.296 209.1 164.096C207.9 166.996 207.001 170.896 207 172.596C207 174.396 207.501 176.497 208.201 177.197C208.901 177.897 210.601 178.396 212 178.396C213.401 178.396 217.001 176.996 220 175.296C223.301 173.396 230.9 166.696 239.1 158.497C246.5 150.997 255.2 141.496 258.3 137.396C261.4 133.296 264 128.996 264 127.896C264 126.796 263.3 125.097 262.3 124.197C261.3 123.297 259.4 122.297 258 121.997ZM526 122.497C525.701 122.497 524.4 122.896 523 123.296C521.601 123.696 518.7 124.996 516.5 126.096C514.3 127.196 509 130.896 504.8 134.296C500.5 137.596 494.401 143.696 491.201 147.596C488.001 151.596 483.901 157.996 482 161.896C479.901 166.196 478.601 170.396 478.5 172.896C478.5 176.296 478.9 176.996 481.3 177.896C483.7 178.696 485 178.396 489.8 175.896C493.3 174.096 499.3 169.196 505.1 163.396C510.4 158.196 518.6 148.996 523.3 142.896C529.4 135.096 532 131.096 532 129.096C532 127.296 531.1 125.729 529.3 124.396C527.701 123.196 526.301 122.397 526 122.497Z" fill="#EBF2F7"/>
<path d="M184 250.935C194.8 251.235 198.7 251.635 203.5 253.435C206.8 254.635 211.1 256.835 213 258.435C214.9 259.935 217.4 262.735 218.5 264.635C219.8 266.935 220.5 269.835 220.4 273.535C220.4 277.235 219.6 280.836 217.9 284.535C216.5 287.535 212.6 292.935 209.3 296.535C206 300.135 200 305.335 195.9 308.135C191.8 310.935 183.2 316.335 176.8 320.135C170.3 323.935 165.2 327.136 165.3 327.236C165.403 327.436 169.602 328.336 174.5 329.335C179.9 330.435 186.1 332.635 189.9 334.635C193.4 336.535 198.2 339.635 200.4 341.635C202.7 343.635 205.6 347.435 206.9 350.135C208.3 352.935 209.5 357.235 210 365.535H218.8C223.6 365.535 229 365.235 230.8 364.835C233.7 364.135 234.6 363.035 237.8 356.635C240 352.235 244.1 346.435 247.6 342.635C251.1 338.835 256.2 334.635 259.6 332.835C263.9 330.435 266.8 329.535 270.5 329.535C274.6 329.535 275.9 329.935 278 332.135C280 334.135 280.5 335.735 280.5 339.535C280.5 343.235 279.8 345.335 277.5 348.635C275.9 350.935 272.3 354.535 269.5 356.435C266.8 358.435 258.9 362.335 252.1 365.035C241.5 369.235 239.5 370.435 239 372.535C238.6 373.936 238.7 376.636 239.2 378.535C239.6 380.435 240.8 382.835 241.7 383.835C242.7 384.735 245.3 386.035 247.5 386.435C250.5 387.135 253.3 386.935 258.5 385.535C262.4 384.635 269.3 381.835 274 379.535C278.7 377.235 288.5 371.135 309.2 357.035L314.5 346.535C317.4 340.735 320.7 335.135 321.9 334.035C323.2 332.736 324.6 332.335 325.5 332.835C326.3 333.235 327 334.735 327 336.335C327 337.835 323.1 346.335 318.5 355.335C313.8 364.235 310.1 371.535 310.2 371.535C310.403 371.533 314.602 367.634 319.5 362.835C324.4 358.035 332.1 351.536 336.5 348.236C340.9 344.936 347.2 340.935 350.5 339.435C353.8 337.835 357.5 336.535 358.7 336.535C360 336.536 361.9 337.436 363 338.535C364.1 339.635 365.3 341.735 365.6 343.335C366.1 345.135 365 349.935 362.1 358.535C359.7 365.835 358 372.935 358 375.535C358 378.235 358.7 381.035 359.7 382.435C361.3 384.535 362.1 384.735 366 384.435C368.5 384.135 373.6 382.435 377.5 380.535C381.4 378.635 388.8 373.935 394 370.035C402.5 363.635 403.9 362.135 407.9 355.035C410.3 350.635 414.8 344.436 417.9 341.236C421 338.036 425.3 334.335 427.5 333.035C429.7 331.835 433.5 330.235 436 329.635C439.2 328.735 441.4 328.735 443.7 329.435C445.5 330.035 447.8 331.735 448.7 333.335C449.9 335.335 450.2 337.236 449.7 340.535C449.4 343.035 448 346.635 446.7 348.535C445.4 350.435 441.7 353.835 438.4 356.035C435.2 358.235 427.4 362.335 421.3 365.035C413.5 368.535 409.7 370.735 409 372.335C408.5 373.535 408 375.435 408 376.535C408 377.635 408.6 379.735 409.3 381.135C409.9 382.635 411.7 384.435 413.3 385.135C414.8 385.935 417.8 386.535 420 386.535C422.2 386.535 426.1 386.035 428.8 385.435C431.4 384.835 438.9 381.735 445.5 378.435C452.1 375.135 462.3 369.135 468.3 365.035C477.9 358.335 479.3 356.935 482.3 351.335C484 347.935 487.6 342.835 494.9 335.035V338.535C495 340.736 492.799 346.636 489.1 354.535C485.9 361.435 482.4 369.736 481.5 373.035C480.5 376.635 480 380.235 480.4 382.035C480.8 383.635 481.6 385.635 482.3 386.335C483 387.035 484.7 387.635 486.3 387.535C487.8 387.535 491.4 386.635 494.3 385.535C497.1 384.435 502.4 381.635 506 379.335C509.6 376.935 518.6 370.236 539.5 353.736L543.4 344.435C545.5 339.235 550.3 328.935 554.1 321.535C557.9 314.135 560.9 308.035 560.8 307.935C560.593 307.836 553.796 308.436 545.5 309.236C537.3 310.036 529 310.435 527.3 310.135C525.5 309.835 524 309.135 524 308.535C524 307.935 524.9 307.135 526 306.535C527.1 305.935 536.4 304.635 546.8 303.535C557.1 302.435 565.6 301.435 565.6 301.335C565.7 301.135 569.9 294.335 575 286.035C580.1 277.836 584.799 269.836 585.6 268.335C586.6 266.335 587.7 265.635 589.3 265.835C591.1 266.035 591.5 266.535 591.2 269.035C591.1 270.736 588.4 276.936 585.3 283.035C582.2 289.135 578.9 295.536 576 300.535L590.8 299.835C598.9 299.335 610.5 299.035 616.5 299.035C623.5 299.135 628.4 299.535 630 300.435C632.4 301.635 632.4 301.835 630.7 303.335C629.2 304.735 626.2 305.035 611.7 305.135C602.2 305.235 589.8 305.635 584 306.035C575 306.735 573.2 307.135 571.5 309.035C570.4 310.236 564.7 320.635 558.9 332.135C553.1 343.635 547.1 356.835 545.6 361.535C544 366.235 542.5 372.736 542.2 376.035C542 379.335 542 383.235 542.4 384.835C542.7 386.335 543.7 388.235 544.5 389.035C545.3 389.835 547.5 390.535 549.3 390.535C551 390.535 554.3 389.835 556.5 388.935C558.7 388.035 563.2 385.436 566.5 383.236C569.8 381.036 578.6 374.535 586 368.935C596.1 361.335 600.4 357.335 603.3 353.135C605.3 350.035 608.7 345.635 610.9 343.335C613 340.935 617.2 337.335 620.1 335.335C623.1 333.235 627.5 331.035 630 330.435C632.5 329.735 635.7 329.535 637.3 329.835C638.8 330.235 640.9 331.535 642.1 332.835C643.8 334.635 644.1 336.035 643.8 340.635C643.6 345.235 642.9 347.035 640.4 350.135C638.7 352.335 635.3 355.435 632.9 357.035C630.5 358.735 624.9 361.535 620.5 363.435C616.1 365.235 610.5 367.635 608.1 368.835C605.6 370.035 603.2 371.936 602.7 373.035C602.2 374.235 602.3 376.635 602.9 379.335C603.7 382.335 604.9 384.035 607.3 385.535C609.3 386.835 612.3 387.535 615.3 387.535C617.9 387.535 623.4 386.435 627.5 385.035C631.6 383.635 637.7 381.135 641 379.535C644.3 377.935 650.3 374.435 654.3 371.935C658.2 369.335 665.1 364.435 669.5 361.035C673.9 357.635 678.2 354.635 679 354.335C679.8 353.935 681.2 354.035 682 354.535C683.3 355.235 683.3 355.636 681.9 357.736C681 358.936 677.9 362.135 674.9 364.635C671.9 367.235 665.7 371.835 661 375.035C656.3 378.135 648.9 382.435 644.5 384.535C640.1 386.635 633.4 389.335 629.5 390.635C625.1 392.035 619.9 392.935 615.5 392.935C609.9 393.035 607.7 392.535 604.8 390.835C602.6 389.535 600.1 386.835 599 384.535C597.9 382.335 596.9 378.235 596.8 375.535C596.6 372.735 596.2 370.535 595.8 370.535C595.299 370.536 591.299 373.436 586.8 376.835C582.2 380.335 575.6 385.135 572 387.535C568.4 390.035 563 392.936 560 394.236C557 395.436 552.5 396.535 550 396.535C547.2 396.535 544.3 395.735 542.3 394.535C540.3 393.335 538.2 390.635 536.9 387.835C535 383.635 534.8 381.935 535.4 374.335C535.7 369.435 535.8 365.535 535.5 365.535C535.2 365.535 530.6 368.735 525.3 372.635C519.9 376.535 512.4 381.735 508.5 384.135C504.6 386.535 498.9 389.435 495.8 390.535C492.6 391.635 488.2 392.535 486 392.535C482.8 392.535 481.3 391.835 478.5 389.035C475.1 385.635 475 385.335 475 377.535C475 373.135 474.8 369.535 474.5 369.535C474.2 369.535 471.4 371.235 468.3 373.435C465.1 375.535 458.7 379.335 454 381.835C449.3 384.335 441.9 387.635 437.5 389.135C431.6 391.135 427.4 391.835 421.5 391.935C415.2 392.035 412.8 391.635 410.1 390.035C408.2 388.935 405.8 386.635 404.8 385.035C403.8 383.435 402.7 379.935 401.5 372.635L392 378.736C386.8 382.136 379.9 385.936 376.8 387.236C373.6 388.536 369.1 389.835 366.8 390.135C364 390.535 361.2 390.235 359 389.335C356.6 388.335 354.9 386.635 353.6 383.935C352 380.735 351.8 378.635 352.3 372.035C352.6 367.335 353.9 360.935 355.4 356.535C356.8 352.435 358 348.235 358 347.335C358 346.335 357.2 345.235 356.3 344.935C355.3 344.535 352.9 345.036 351 346.035C349.1 347.035 344.2 350.235 340.3 353.135C336.3 356.135 325.7 365.935 316.8 375.035C307.8 384.035 299.9 391.435 299.3 391.535C298.6 391.535 297.8 390.835 297.5 390.035C297.2 389.235 298.8 383.935 301 378.335C303.2 372.635 304.9 367.935 304.8 367.835C304.598 367.736 301.599 369.736 298 372.135C294.4 374.635 288.1 378.535 284 381.035C279.9 383.435 272.7 386.835 268 388.535C263.2 390.335 256.6 391.936 253 392.236C247.5 392.636 245.8 392.335 242.1 390.335C239.6 389.035 236.7 386.736 235.6 385.236C234.1 383.236 233.4 380.535 233 370.535H222.3C214.7 370.535 210.9 370.935 209.5 371.935C208.4 372.635 205.1 377.235 202.1 382.135C198.5 388.035 193.4 394.235 187.1 400.535C181.8 405.835 173.4 412.835 168.5 416.135C163.6 419.535 155.7 424.235 151 426.535C146.3 428.935 137.3 432.535 131 434.535C124.7 436.635 116.4 438.935 112.5 439.635C108.6 440.335 100.8 441.035 95 441.035C87.6 441.035 83.2 440.535 80 439.335C77.5 438.435 74.2998 436.335 72.7998 434.635C70.5 432.035 70 430.635 70 426.335C70 422.935 70.8004 419.235 72.4004 416.035C73.6004 413.335 77.0996 408.435 80.0996 405.135C83.0996 401.935 88.2 397.135 91.5 394.535C94.8 391.935 98.9998 389.035 100.8 388.135C103.5 386.835 105 384.435 110.1 373.835C113.4 366.735 119 355.835 122.5 349.535C126.1 343.235 129 337.035 129 335.835C129 334.535 130.5 332.035 132.4 330.335C134.2 328.535 138.3 322.735 141.5 317.535C144.7 312.335 152.5 299.535 158.8 289.035C165.1 278.635 171.2 269.036 172.4 267.736C173.5 266.536 175.3 265.536 176.3 265.535C177.2 265.535 178.2 266.035 178.5 266.535C178.799 267.137 174.199 275.436 168.3 285.035C162.3 294.635 153.8 308.535 149.3 315.835C144.1 324.135 141.4 329.435 142 330.035C142.6 330.735 144.4 330.435 147.2 329.335C149.6 328.335 156.4 324.835 162.5 321.435C168.6 318.135 178.7 311.936 185 307.736C191.3 303.536 199.2 297.535 202.5 294.435C205.8 291.335 209.8 286.335 211.4 283.435C213.3 279.835 214.3 276.435 214.4 273.335C214.5 270.035 213.9 267.835 212.4 265.835C211.3 264.335 208.1 261.835 205.4 260.335C202.7 258.835 197.4 257.135 193.5 256.435C189.3 255.735 182.7 255.535 177 255.835C171.8 256.235 164.1 257.135 160 257.935C155.9 258.735 149.6 260.335 146 261.535C142.4 262.735 134.8 266.035 129 268.835C121.1 272.735 116.7 275.736 111.2 280.736C107.3 284.535 103.6 287.335 103 287.035C102.4 286.735 102 285.335 102 283.835C102 281.735 103.5 279.535 107.8 275.535C111 272.435 117 268.135 121.5 265.835C125.9 263.535 132.4 260.536 136 259.236C139.6 257.836 146.3 255.735 151 254.535C155.7 253.335 162 252.035 165 251.535C168 251.035 176.6 250.835 184 250.935ZM200.5 372.31C200.1 371.11 197.799 370.81 187.8 370.91C181 371.01 172.1 371.41 168 371.91C163.9 372.41 154.4 374.311 147 376.111C139.6 378.011 129.9 381.21 125.5 383.21C121.1 385.31 116 388.01 114.3 389.41C112.5 390.71 110.1 393.61 109 395.81C107.9 398.01 106.4 399.81 105.8 399.81C105.1 399.91 103.8 398.91 103 397.71C101.8 396.01 101 395.71 99 396.31C97.6 396.81 93.3 400.31 89.5 404.21C85.5002 408.21 81.2004 413.71 79.7002 416.81C78.2002 419.81 77 423.811 77 425.611C77.0001 427.31 77.5001 429.71 78 430.81C78.6 431.91 80.6 433.51 82.5 434.31C84.6 435.21 89.0999 435.81 93.7998 435.81C97.9998 435.81 105.6 435.11 110.5 434.31C115.5 433.41 124 431.21 129.5 429.41C135 427.51 143.6 424.011 148.5 421.611C153.5 419.111 160.9 415.01 165 412.31C169.2 409.51 177.5 402.41 184 395.91C191 388.811 196.6 382.211 198.3 379.111C199.8 376.211 200.8 373.11 200.5 372.31ZM163 334.91C158.9 335.01 153 335.41 150 335.91C147 336.41 142.5 337.811 140 339.111C136.2 341.011 134.8 342.61 130.7 349.81C128 354.51 123.4 363.411 120.4 369.611C117.402 375.708 115.102 381.006 115.3 381.31C115.4 381.61 119.6 380.11 124.5 377.91C129.5 375.81 136.4 373.11 140 372.01C143.6 370.81 149.9 369.11 154 368.21C158.8 367.21 169 366.31 182.5 365.91L203.5 365.31C203.9 358.41 203.3 355.411 202.1 353.111C201.1 351.011 198.4 347.611 196.1 345.611C193.9 343.511 190.1 340.81 187.8 339.71C185.4 338.51 180.6 336.91 177 336.21C173.4 335.41 167.1 334.91 163 334.91ZM635 337.111C633.1 337.011 629.7 337.71 627.5 338.81C625.3 339.91 621.1 342.91 618.3 345.51C615.4 348.21 611.4 353.01 609.5 356.31C607.6 359.61 606 362.911 606 363.611C606.001 364.31 608.701 363.51 613.3 361.21C617.2 359.21 623.4 355.61 627 353.31C630.6 351.01 634.8 347.81 636.3 346.21C638.3 344.11 639 342.51 638.8 340.31C638.5 337.61 638.1 337.311 635 337.111ZM440 335.91C439.2 335.91 437.1 336.41 435.5 337.01C433.9 337.61 430.7 339.31 428.5 340.81C426.3 342.31 423 345.21 421.3 347.41C419.5 349.511 416.8 353.711 415.3 356.611C413.7 359.51 412.701 362.109 413 362.31C413.3 362.61 417.5 360.81 422.5 358.41C427.5 356.011 433.8 352.211 436.5 350.111C439.3 347.911 442.4 344.51 443.5 342.41L445.5 338.71C442.4 336.41 440.8 335.81 440 335.91ZM270 336.81C268.1 336.81 264.9 337.71 263 338.91C261.1 340.11 257.5 342.911 255.1 345.111C252.7 347.411 249 352.01 246.8 355.31C244.7 358.61 243 361.611 243 362.111C243.001 362.51 244.901 362.11 247.3 361.21C249.6 360.41 254.4 358.11 258 356.31C261.6 354.41 266.5 351.211 268.9 349.111C271.3 347.011 273.899 344.111 274.6 342.611C275.7 340.311 275.8 339.51 274.8 338.31C274 337.41 272 336.71 270 336.81ZM509.6 304.535C510.4 304.535 511.9 305.435 513 306.535C514.9 308.435 514.9 308.635 513.2 310.635C512.3 311.835 510.4 313.135 509 313.635C507.2 314.335 506.3 314.235 505.8 313.335C505.4 312.635 504.9 311.135 504.8 310.135C504.7 309.035 505.5 307.335 506.5 306.335C507.5 305.335 508.899 304.536 509.6 304.535Z" fill="#EBF2F7"/>
</svg>
