<svg width="299" height="513" viewBox="0 0 299 513" fill="none" xmlns="http://www.w3.org/2000/svg">
<path fill-rule="evenodd" clip-rule="evenodd" d="M181.307 191.088C187.707 191.388 196.107 192.488 202.807 194.088C208.907 195.488 221.207 199.088 230.307 201.988C239.407 204.988 250.607 208.388 255.307 209.588C260.807 210.988 266.807 211.788 272.307 211.788C278.707 211.788 282.907 211.088 289.307 209.088C294.007 207.688 297.907 206.588 298.107 206.788C298.307 206.988 298.207 207.988 297.907 209.088C297.607 210.288 295.507 211.988 292.607 213.188C290.007 214.388 285.407 215.888 282.607 216.488C279.707 217.088 274.807 217.588 271.807 217.588C268.807 217.588 261.907 216.688 256.607 215.588C251.207 214.488 239.207 211.188 229.807 208.188C220.407 205.288 209.407 201.888 205.307 200.688C201.207 199.588 193.307 197.988 187.807 197.088C182.307 196.288 175.007 195.588 171.507 195.588C166.007 195.588 165.307 195.388 165.307 193.588C165.307 192.188 166.107 191.488 168.107 191.188C169.607 190.988 175.507 190.888 181.307 191.088Z" fill="#EBF2F7"/>
<path d="M173.707 191.088C174.107 190.488 161.707 191.588 161.307 191.688C161.007 191.688 159.607 192.088 158.307 192.588C156.907 193.088 155.907 193.988 156.007 194.588C156.107 195.088 157.907 195.588 160.007 195.588C162.607 195.588 172.207 195.688 171.207 195.088C170.407 194.588 173.407 191.688 173.707 191.088Z" fill="#EBF2F7"/>
<path d="M44 0.00952686C47 -0.090473 52 0.609528 55 1.50953C58 2.40953 63.4 4.60992 67 6.40992C70.6 8.20992 76.7 11.9092 80.5 14.6091C84.3 17.3091 90.6004 22.4095 94.4004 26.0095C98.2004 29.5096 104.7 36.71 108.9 41.9099C113.1 47.11 119.5 56.3101 123.1 62.4099C126.8 68.5099 131.1 76.1099 132.7 79.4099C134.4 82.7101 137.3 89.5101 139.3 94.4099C141.2 99.31 144.5 109.31 150.5 129.41L151.2 116.91C151.5 110.01 152.6 100.81 153.5 96.4099C154.4 92.01 156.5 84.3099 158 79.4099C159.6 74.51 163.2 65.9099 166 60.4099C168.8 54.91 173.6 47.01 176.5 42.9099C179.5 38.8099 185.5 31.8099 189.9 27.4099C194.3 23.0099 200.7 17.7091 204.2 15.6091C207.7 13.5092 212.3 11.4093 214.5 10.8093C216.7 10.2093 220.3 10.0093 222.5 10.3093C224.7 10.6093 227.5 11.9092 228.8 13.1091C230.1 14.4091 231.8 17.9099 232.7 20.9099C233.8 24.9098 234.1 28.9101 233.8 35.4099C233.5 40.3099 232.3 48.01 231.2 52.4099C230 56.81 227.3 64.91 225.2 70.4099C223 75.91 219 85.31 216.3 91.4099C213.6 97.51 208.3 107.81 204.5 114.41C200.8 121.01 193.2 133.41 187.7 141.91C182.1 150.41 173.6 163.31 168.7 170.41C163.7 177.51 157.5 185.91 154.9 188.91C152.201 191.909 150.401 194.809 150.8 195.309C150.88 195.409 151.5 195.81 151.5 196.41C151.499 197.01 149.7 199.01 148.5 200.91C147.3 202.81 145 204.41 144.5 205.41C144 205.91 144 205.91 143.3 206.41C142.699 206.411 139.399 209.81 136.1 213.91C132.8 218.01 127.1 226.31 123.4 232.41C119.7 238.51 112.9 249.91 108.2 257.91C103.5 265.91 96.6004 276.51 92.9004 281.41C89.1004 286.31 83.1998 293.809 79.7998 298.109C76.2998 302.309 67.8996 312.609 61.0996 321.109C54.1996 329.509 45.5002 341.11 41.7002 346.91C37.9002 352.71 33.1998 360.51 31.2998 364.41C29.2998 368.31 26.5998 374.51 25.2998 378.41C23.9998 382.31 22.3 388.41 21.5 392.21C20.7 395.91 20 403.71 20 409.71C20 416.11 20.6996 423.01 21.5996 426.91C22.4997 430.51 24.7004 436.51 26.4004 440.41C28.2004 444.31 31.1001 449.71 33 452.41C34.9001 455.21 39.3005 460.509 42.9004 464.309C46.5004 468.009 54.2 475.01 60 479.71C65.8 484.41 73.8004 491.209 77.9004 494.809C82.0004 498.409 86.8002 503.71 88.7002 506.41C90.5001 509.21 92 511.71 92 512.21C91.9997 512.609 90.9999 512.41 89.7002 511.71C88.5002 511.11 84.7999 508.01 81.5 504.91C78.2 501.91 69 494.11 61 487.71C53 481.41 43.6 473.109 40 469.309C36.4001 465.509 31.8998 459.91 29.7998 456.91C27.7998 453.91 24.7996 448.51 23.0996 444.91C21.3997 441.31 19.1004 435.31 17.9004 431.41C16.7004 427.11 15.5998 420.11 15.2998 413.41C14.9998 407.01 15.2004 399.21 15.9004 394.91C16.6004 390.81 17.9996 384.31 19.0996 380.41C20.2996 376.51 23.1 369.41 25.5 364.41C27.9 359.41 33.4004 350.01 37.9004 343.41C42.3004 336.81 49.4002 327.11 53.7002 321.71C58.0001 316.41 66.6996 305.61 73.0996 297.71C79.4996 289.91 88.6002 277.81 93.2002 270.91C97.9002 264.01 106.6 250.609 112.6 241.109C118.6 231.609 125.2 221.209 127.2 218.109C129.2 215.01 130.9 212.11 130.9 211.71C131 211.21 130.2 211.209 129.2 211.609C128.3 211.909 123.2 215.01 118 218.51C112.8 221.91 104.4 227.91 99.5 231.91C94.6 235.91 88 240.81 85 242.91C82 244.91 76.7999 248.01 73.5 249.71C70.2 251.31 64.3 253.61 60.5 254.71C56.7 255.81 51 257.11 48 257.41C45 257.71 39.6 257.51 36 256.91C32.4001 256.21 27 254.41 24 252.91C21.0001 251.41 16.3002 247.91 13.7002 245.21C11.0003 242.61 7.60007 238.21 6 235.41C4.50004 232.71 2.49964 227.91 1.59961 224.91C0.699638 221.91 4.44129e-05 216.31 0 212.41C0 208.51 0.699674 202.91 1.59961 199.91C2.49956 196.91 4.09983 192.61 5.2998 190.41C6.3998 188.21 9.40039 184.21 11.9004 181.51C14.4003 178.81 18.3 175.41 20.5 173.91C22.7 172.41 27 170.11 30 168.91C33 167.71 39.1004 166.41 51.4004 165.41L38.5 159.01C28.1001 153.81 24.3003 151.309 19.4004 146.51C14.8005 141.91 12.9 139.11 11.5 134.91C10.3 131.01 9.89964 127.21 10.0996 121.91C10.3996 115.41 11.0998 113.01 15.0996 104.91C17.5995 99.7101 20.2999 92.9101 21 89.9099C22 85.71 22.1004 80.6096 21.4004 67.9099C20.9004 58.8101 20.5 44.41 20.5 35.9099C20.5 23.9102 20.9003 19.3099 22.2002 15.4099C23.2002 12.61 25.7 8.50974 28 6.20972C30.1999 3.8098 33.4998 1.50963 35.2998 1.00953C36.9998 0.509527 41 0.00952686 44 0.00952686ZM53.5 170.309C45.6 170.009 40.9998 170.31 37.2998 171.41H37.2002C34.4002 172.21 29.3998 174.209 26.2998 175.809C22.6998 177.609 18.5002 180.91 15.2002 184.51C12.1002 187.91 8.9002 192.71 7.7002 195.91C6.00031 200.31 5.6 203.61 5.5 212.41C5.50001 222.609 5.70004 223.91 8.5 229.91C10.2001 233.51 13.6001 238.61 16 241.21C18.8 244.21 23.0001 247.31 27 249.21C32.1999 251.71 35.1 252.41 41.5 252.71C46.6 253.01 52 252.51 56.5 251.51C60.2999 250.61 67.6 247.81 72.5 245.41C78.2 242.61 86.5 237.009 95 230.309C102.4 224.509 113.2 216.41 119 212.41C124.8 208.51 131.7 203.909 134.3 202.309C138.2 200.009 138.9 199.21 137.8 198.21C137.1 197.61 130.9 194.609 124 191.609C117.1 188.609 100.9 182.71 88 178.41C65.6 171.11 64 170.709 53.5 170.309ZM43 4.90992C41.1 4.90992 37.7 5.80934 35.5 6.80933C32.9 8.00933 30.6998 10.0095 29.2998 12.5095C28.0998 14.6096 26.5004 20.01 25.9004 24.4099C24.9005 30.8097 24.9004 35.6102 25.9004 48.4099C26.6004 57.2098 27.4002 68.21 27.7002 72.9099C28.1001 79.0097 27.7996 83.21 26.5996 87.9099C25.6995 91.5101 22.8999 98.7102 20.5 103.91C18.1001 109.11 15.6 115.61 15 118.41C14.2001 121.91 14.2001 124.809 15 128.109C15.5 130.809 16.6004 134.109 17.4004 135.609C18.1004 137.209 20.4996 140.01 22.5996 141.91C24.7996 143.91 30.6 147.91 35.5 150.91C40.4 153.91 49.0001 158.41 54.5 161.01C60 163.61 68.6 166.91 73.5 168.41C78.4001 169.91 90.8001 173.81 101 177.01C111.6 180.51 125 185.61 132.4 189.21L145.3 195.41C149.7 190.01 151.8 186.81 152.7 184.91C154 182.11 154.2 179.51 153.7 171.41C153.3 164.01 151.7 155.71 147.6 139.91C144.6 128.11 141 115.311 139.7 111.41C138.4 107.51 135.6 100.31 133.6 95.4099C131.5 90.51 127.6 82.1099 124.8 76.9099C122 71.7101 117 63.31 113.7 58.4099C110.4 53.51 105.1 46.21 102 42.4099C98.9001 38.61 93.0004 32.3096 88.9004 28.5095C84.8005 24.7096 79.0001 20.01 76 17.9099C73.0001 15.91 67.7002 12.8095 64.2002 11.0095C60.8002 9.30953 55.3998 7.20992 52.2998 6.40992C49.0998 5.60992 44.9 4.90992 43 4.90992ZM218.7 15.0095C217.5 15.0095 214.9 15.6093 213 16.3093C211.1 17.0093 207.3 19.1099 204.5 20.9099C201.8 22.71 196.4 27.4094 192.5 31.3093C188.6 35.2093 183.2 41.8099 180.3 45.9099C177.5 50.0101 172.499 59.0102 169.1 65.9099C165.8 72.8099 161.9 82.51 160.5 87.4099C159.1 92.3099 157.5 99.11 157 102.41C156.4 105.71 156 113.81 156 120.41C156 127.01 156.7 137.31 157.5 143.41C158.3 149.51 159.3 158.809 159.7 164.109C160.4 172.109 160.7 173.609 161.9 172.609C162.601 171.908 165.1 168.709 167.3 165.41C169.522 162.221 176.039 152.497 182.159 143.365L182.8 142.41C189.9 131.71 197.5 118.61 203.4 106.91C208.4 96.7101 214.9 82.61 217.7 75.4099C220.6 68.2102 224.1 58.3101 225.6 53.4099C227.3 47.5101 228.4 41.0097 228.8 34.4099C229.2 26.5104 228.9 23.7098 227.7 20.9099C226.8 19.0099 224.9 16.8091 223.5 16.1091C222.1 15.5092 220 14.9096 218.7 15.0095Z" fill="#EBF2F7"/>
</svg>
